<?xml version="1.0" encoding="utf-8"?>
<!-- Generator: Adobe Illustrator 21.0.2, SVG Export Plug-In . SVG Version: 6.00 Build 0)  -->
<svg version="1.1" id="Ebene_1" xmlns="http://www.w3.org/2000/svg" xmlns:xlink="http://www.w3.org/1999/xlink" x="0px" y="0px"
	 viewBox="0 0 50 50" style="enable-background:new 0 0 50 50;" xml:space="preserve">
<style type="text/css">
	.st0{fill:#36A9E1;}
</style>
<title>blockchain-blockZeichenfläche 1</title>
<polygon class="st0" points="24.9,0 2.5,11.2 25.1,22.5 47.5,11.3 "/>
<path class="st0" d="M25.6,23.3V50L48,38.8V12.1L25.6,23.3z M37.5,34.1L32,37c-1.3,0.7-2.4-0.1-2.4-1.8V33c0-1.7,0.9-3.4,2.4-4.3
	l4.4-2.2c-0.5,0.7-0.8,1.5-1,2.4L32,30.7c-0.5,0.3-0.9,0.9-0.9,1.5v2.2c0,0.6,0.4,0.9,0.9,0.7l5.5-2.8c0.5-0.3,0.8-0.9,0.8-1.5v-2.1
	c0-0.1,0-0.2,0-0.2l1.4-0.7c0,0.1,0,0.1,0,0.2V30C39.7,31.7,38.9,33.2,37.5,34.1z M45.6,27c0,1.6-0.8,3.1-2.1,4l-4.2,2.2
	c0.5-0.7,0.8-1.5,1-2.4l3.2-1.6c0.5-0.3,0.8-0.9,0.8-1.4v-2.1c0-0.6-0.3-0.9-0.8-0.6l-5.2,2.6c-0.5,0.3-0.8,0.9-0.8,1.5v2.1
	c0,0.1,0,0.2,0,0.2L36,32.1c0-0.1,0-0.1,0-0.2v-2.2c0-1.7,0.9-3.2,2.3-4.1l5.2-2.5c1.2-0.6,2.1,0.2,2.1,1.8L45.6,27z"/>
<path class="st0" d="M7.3,32.2c0.1,0.8,0.5,1.6,1.2,2c0.6,0.4,1.2,0.1,1.2-0.7c-0.1-0.8-0.5-1.6-1.2-2C7.8,31.1,7.3,31.4,7.3,32.2z"
	/>
<path class="st0" d="M17.9,31.1c0.9,0.8,1.5,1.9,1.6,3.1c0,1.2-0.9,1.8-2,1.1c-1.2-0.7-1.9-2-2-3.4c0-1.1,0.7-1.6,1.6-1.3V19.5
	l-3.3-1.6l-0.2-0.1V25c0.9,0.8,1.5,1.9,1.6,3.1c0,1.2-0.9,1.7-2,1.1c-1.2-0.7-1.9-2-2-3.4c0-1.1,0.7-1.6,1.6-1.3v-7.1l-4.1-2v15.4
	c1,0.7,1.7,1.9,1.8,3.1c0,1.2-0.9,1.7-2,1.1c-1.2-0.7-1.9-2-2-3.4c0-1.1,0.7-1.6,1.6-1.3V15L2,11.9v26.7L24.7,50V23.3l-6.8-3.4V31.1
	z"/>
<path class="st0" d="M16.3,32.4c0.1,0.8,0.5,1.6,1.2,2c0.6,0.4,1.2,0.1,1.2-0.7c-0.1-0.8-0.5-1.6-1.2-2
	C16.8,31.4,16.3,31.7,16.3,32.4z"/>
<path class="st0" d="M12.1,26.3c0.1,0.8,0.5,1.6,1.2,2c0.6,0.4,1.2,0.1,1.2-0.7c-0.1-0.8-0.5-1.6-1.2-2
	C12.6,25.3,12.1,25.5,12.1,26.3z"/>
</svg>
