<svg id="Ebene_1" data-name="Ebene 1" xmlns="http://www.w3.org/2000/svg" viewBox="0 0 50 50"><defs><style>.cls-1{fill:#36a9e1;}</style></defs><title>blockchain-certificateZeichenfläche 1</title><circle class="cls-1" cx="14.63" cy="22.31" r="1.62"/><circle class="cls-1" cx="26.58" cy="15.29" r="1.62"/><circle class="cls-1" cx="20.26" cy="11.07" r="1.62"/><path class="cls-1" d="M29,42.69V50l3.75-2,3.75,2V42.69a5.32,5.32,0,0,1-7.49,0Z"/><circle class="cls-1" cx="32.78" cy="38.91" r="4.25"/><path class="cls-1" d="M27.07,0V12.74a2.6,2.6,0,1,1-1,0V0H20.74V8.52a2.6,2.6,0,1,1-1,0V0H15.12V19.77a2.6,2.6,0,1,1-1,0V0H7.78V43.57H28.06V41.36a5.33,5.33,0,1,1,9.45,0v2.21h4.71V0Z"/></svg>